<?xml version="1.0" encoding="utf-8"?>
<svg version="1.1" xmlns:xlink="http://www.w3.org/1999/xlink" width="29px" height="23px" xmlns="http://www.w3.org/2000/svg">
  <g transform="matrix(1 0 0 1 -75 -178 )">
    <path d="M 6.13134765625 15.424375  C 6.57503255208333 14.9739583333333  6.796875 14.4325  6.796875 13.8  C 6.796875 13.1675  6.57503255208333 12.6260416666667  6.13134765625 12.175625  C 5.68766276041667 11.7252083333333  5.154296875 11.5  4.53125 11.5  C 3.908203125 11.5  3.37483723958333 11.7252083333333  2.93115234375 12.175625  C 2.48746744791667 12.6260416666667  2.265625 13.1675  2.265625 13.8  C 2.265625 14.4325  2.48746744791667 14.9739583333333  2.93115234375 15.424375  C 3.37483723958333 15.8747916666667  3.908203125 16.1  4.53125 16.1  C 5.154296875 16.1  5.68766276041667 15.8747916666667  6.13134765625 15.424375  Z M 8.56689453125 4.068125  L 7.306640625 9.2  L 21.693359375 9.2  L 20.43310546875 4.068125  C 20.4142252604167 3.99145833333333  20.34814453125 3.90760416666666  20.23486328125 3.8165625  C 20.12158203125 3.72552083333333  20.0224609375 3.68  19.9375 4  L 9.0625 4  C 8.9775390625 3.68  8.87841796875 3.72552083333333  8.76513671875 3.8165625  C 8.65185546875 3.90760416666666  8.58577473958333 3.99145833333333  8.56689453125 4.068125  Z M 26.06884765625 15.424375  C 26.5125325520833 14.9739583333333  26.734375 14.4325  26.734375 13.8  C 26.734375 13.1675  26.5125325520833 12.6260416666667  26.06884765625 12.175625  C 25.6251627604167 11.7252083333333  25.091796875 11.5  24.46875 11.5  C 23.845703125 11.5  23.3123372395833 11.7252083333333  22.86865234375 12.175625  C 22.4249674479167 12.6260416666667  22.203125 13.1675  22.203125 13.8  C 22.203125 14.4325  22.4249674479167 14.9739583333333  22.86865234375 15.424375  C 23.3123372395833 15.8747916666667  23.845703125 16.1  24.46875 16.1  C 25.091796875 16.1  25.6251627604167 15.8747916666667  26.06884765625 15.424375  Z M 28.072509765625 10.1415625  C 28.6908365885417 10.7692708333333  29 11.52875  29 12.42  L 29 17.94  C 29 18.0741666666667  28.95751953125 18.184375  28.87255859375 18.270625  C 28.78759765625 18.356875  28.6790364583333 18.4  28.546875 18.4  L 27.1875 18.4  L 27.1875 20.24  C 27.1875 21.0066666666667  26.9231770833333 21.6583333333333  26.39453125 22.195  C 25.8658854166667 22.7316666666667  25.2239583333333 23  24.46875 23  C 23.7135416666667 23  23.0716145833333 22.7316666666667  22.54296875 22.195  C 22.0143229166667 21.6583333333333  21.75 21.0066666666667  21.75 20.24  L 21.75 18  L 7.25 18  L 7.25 20.24  C 7.25 21.0066666666667  6.98567708333333 21.6583333333333  6.45703125 22.195  C 5.92838541666667 22.7316666666667  5.28645833333333 23  4.53125 23  C 3.77604166666667 23  3.13411458333333 22.7316666666667  2.60546875 22.195  C 2.07682291666667 21.6583333333333  1.8125 21.0066666666667  1.8125 20.24  L 1.8125 18.4  L 0.453125 18.4  C 0.320963541666667 18.4  0.21240234375 18.356875  0.12744140625 18.270625  C 0.04248046875 18.184375  0 18.0741666666667  0 17.94  L 0 12.42  C 0 11.52875  0.309163411458333 10.7692708333333  0.927490234375 10.1415625  C 1.54581705729167 9.51385416666667  2.2939453125 9.2  3.171875 9.2  L 3.568359375 9.2  L 5.05517578125 3.176875  C 5.27229817708333 2.27604166666667  5.76318359375 1.52135416666666  6.52783203125 0.9128125  C 7.29248046875 0.304270833333332  8.13736979166667 0  9.0625 0  L 19.9375 0  C 20.8626302083333 0  21.70751953125 0.304270833333332  22.47216796875 0.9128125  C 23.23681640625 1.52135416666666  23.7277018229167 2.27604166666667  23.94482421875 3.176875  L 25.431640625 9.2  L 25.828125 9.2  C 26.7060546875 9.2  27.4541829427083 9.51385416666667  28.072509765625 10.1415625  Z " fill-rule="nonzero" fill="#ffffff" stroke="none" transform="matrix(1 0 0 1 75 178 )" />
  </g>
</svg>