<?xml version="1.0" encoding="utf-8"?>
<svg version="1.1" xmlns:xlink="http://www.w3.org/1999/xlink" width="50px" height="41px" xmlns="http://www.w3.org/2000/svg">
  <g transform="matrix(1 0 0 1 -264 -287 )">
    <path d="M 34.4328703703704 36.1661931818182  C 33.6998456790123 35.4285037878788  33.3333333333333 34.5549242424242  33.3333333333333 33.5454545454545  C 33.3333333333333 32.5359848484848  33.6998456790123 31.6624053030303  34.4328703703704 30.9247159090909  C 35.1658950617284 30.1870265151515  36.0339506172839 29.8181818181818  37.037037037037 29.8181818181818  C 38.0401234567901 29.8181818181818  38.9081790123457 30.1870265151515  39.6412037037037 30.9247159090909  C 40.3742283950617 31.6624053030303  40.7407407407407 32.5359848484848  40.7407407407407 33.5454545454545  C 40.7407407407407 34.5549242424242  40.3742283950617 35.4285037878788  39.6412037037037 36.1661931818182  C 38.9081790123457 36.9038825757576  38.0401234567901 37.2727272727273  37.037037037037 37.2727272727273  C 36.0339506172839 37.2727272727273  35.1658950617284 36.9038825757576  34.4328703703704 36.1661931818182  Z M 44.4444444444444 17.7627840909091  L 44.4444444444444 19  L 33.3333333333333 19  L 33.3333333333333 11.1818181818182  L 37.9050925925926 11.1818181818182  C 38.1558641975309 11.1818181818182  38.3680555555556 11.2691761363636  38.5416666666667 11.4438920454545  L 44.1840277777778 17.1221590909091  C 44.3576388888889 17.296875  44.4444444444444 17.5104166666667  44.4444444444444 17.7627840909091  Z M 8.50694444444444 36.1661931818182  C 7.77391975308642 35.4285037878788  7.40740740740741 34.5549242424242  7.40740740740741 33.5454545454545  C 7.40740740740741 32.5359848484848  7.77391975308642 31.6624053030303  8.50694444444444 30.9247159090909  C 9.23996913580247 30.1870265151515  10.108024691358 29.8181818181818  11.1111111111111 29.8181818181818  C 12.1141975308642 29.8181818181818  12.9822530864197 30.1870265151515  13.7152777777778 30.9247159090909  C 14.4483024691358 31.6624053030303  14.8148148148148 32.5359848484848  14.8148148148148 33.5454545454545  C 14.8148148148148 34.5549242424242  14.4483024691358 35.4285037878788  13.7152777777778 36.1661931818182  C 12.9822530864197 36.9038825757576  12.1141975308642 37.2727272727273  11.1111111111111 37.2727272727273  C 10.108024691358 37.2727272727273  9.23996913580247 36.9038825757576  8.50694444444444 36.1661931818182  Z M 0.549768518518517 0.553267045454548  C 0.183256172839502 0.922111742424237  0 1.35890151515151  0 1.86363636363636  L 0 31.6818181818182  C 0 31.9730113636364  0.0385802469135776 32.2302320075758  0.115740740740738 32.4534801136364  C 0.192901234567899 32.676728219697  0.323109567901231 32.8562973484848  0.506365740740738 32.9921875  C 0.689621913580246 33.1280776515152  0.848765432098764 33.2397017045455  0.983796296296297 33.3270596590909  C 1.11882716049382 33.4144176136364  1.34548611111111 33.47265625  1.66377314814815 33.5017755681818  C 1.98206018518519 33.5308948863636  2.19907407407408 33.5503077651515  2.31481481481481 33.5600142045455  C 2.43055555555556 33.5697206439394  2.67650462962963 33.5697206439394  3.05266203703704 33.5600142045455  C 3.42881944444444 33.5503077651515  3.64583333333333 33.5454545454545  3.7037037037037 33.5454545454545  C 3.7037037037037 35.6032196969697  4.42708333333333 37.3600852272727  5.87384259259259 38.8160511363636  C 7.32060185185185 40.2720170454545  9.06635802469136 41  11.1111111111111 41  C 13.1558641975309 41  14.9016203703704 40.2720170454545  16.3483796296296 38.8160511363636  C 17.7951388888889 37.3600852272727  18.5185185185185 35.6032196969697  18.5185185185185 33  L 29.6296296296296 33  C 29.6296296296296 35.6032196969697  30.3530092592593 37.3600852272727  31.7997685185185 38.8160511363636  C 33.2465277777778 40.2720170454545  34.9922839506173 41  37.037037037037 41  C 39.0817901234568 41  40.8275462962963 40.2720170454545  42.2743055555556 38.8160511363636  C 43.7210648148148 37.3600852272727  44.4444444444444 35.6032196969697  44.4444444444444 33.5454545454545  L 46.2962962962963 33.5454545454545  C 46.3541666666667 33.5454545454545  46.5711805555556 33.5503077651515  46.947337962963 33.5600142045455  C 47.3234953703704 33.5697206439394  47.5694444444444 33.5697206439394  47.6851851851852 33.5600142045455  C 47.8009259259259 33.5503077651515  48.0179398148148 33.5308948863636  48.3362268518518 33.5017755681818  C 48.6545138888889 33.47265625  48.8811728395062 33.4144176136364  49.0162037037037 33.3270596590909  C 49.1512345679012 33.2397017045455  49.3103780864198 33.1280776515152  49.4936342592593 32.9921875  C 49.6768904320988 32.8562973484848  49.8070987654321 32.676728219697  49.8842592592593 32.4534801136364  C 49.9614197530864 32.2302320075758  50 31.9730113636364  50 31.6818181818182  C 50 31.1770833333333  49.8167438271605 30.7402935606061  49.4502314814815 30.3714488636364  C 49.0837191358025 30.0026041666667  48.6496913580247 29.8181818181818  48.1481481481482 29.8181818181818  L 48.1481481481482 20.5  C 48.1481481481482 20.344696969697  48.1529706790123 20.0049715909091  48.1626157407407 19.4808238636364  C 48.1722608024691 18.9566761363636  48.1722608024691 18.5878314393939  48.1626157407407 18.3742897727273  C 48.1529706790123 18.1607481060606  48.1288580246914 17.8258759469697  48.0902777777778 17.3696732954545  C 48.0516975308642 16.9134706439394  47.9890046296296 16.5543323863636  47.9021990740741 16.2922585227273  C 47.8153935185185 16.0301846590909  47.680362654321 15.7341382575758  47.4971064814815 15.4041193181818  C 47.313850308642 15.0741003787879  47.0968364197531 14.7829071969697  46.8460648148148 14.5305397727273  L 41.1168981481482 8.76491477272727  C 40.7503858024691 8.39607007575757  40.2633101851852 8.08546401515151  39.6556712962963 7.83309659090909  C 39.0480324074074 7.58072916666666  38.4837962962963 7.45454545454545  37.962962962963 7.45454545454545  L 33.3333333333333 7.45454545454545  L 33.3333333333333 1.86363636363636  C 33.3333333333333 1.35890151515151  33.1500771604938 0.922111742424237  32.7835648148148 0.553267045454548  C 32.4170524691358 0.184422348484845  31.983024691358 0  31.4814814814815 0  L 1.85185185185185 0  C 1.35030864197531 0  0.916280864197527 0.184422348484845  0.549768518518517 0.553267045454548  Z " fill-rule="nonzero" fill="#ffffff" stroke="none" transform="matrix(1 0 0 1 264 287 )" />
  </g>
</svg>