<?xml version="1.0" encoding="utf-8"?>
<svg version="1.1" xmlns:xlink="http://www.w3.org/1999/xlink" width="10px" height="10px" xmlns="http://www.w3.org/2000/svg">
  <defs>
    <mask fill="white" id="clip35">
      <path d="M 0 5  C 0 7.8  2.2 10  5 10  C 7.8 10  10 7.8  10 5  C 10 2.2  7.8 0  5 0  C 2.2 0  0 2.2  0 5  Z " fill-rule="evenodd" />
    </mask>
  </defs>
  <g transform="matrix(1 0 0 1 -113 -548 )">
    <path d="M 0 5  C 0 7.8  2.2 10  5 10  C 7.8 10  10 7.8  10 5  C 10 2.2  7.8 0  5 0  C 2.2 0  0 2.2  0 5  Z " fill-rule="nonzero" fill="#081f5b" stroke="none" transform="matrix(1 0 0 1 113 548 )" />
    <path d="M 0 5  C 0 7.8  2.2 10  5 10  C 7.8 10  10 7.8  10 5  C 10 2.2  7.8 0  5 0  C 2.2 0  0 2.2  0 5  Z " stroke-width="4" stroke="#f59a23" fill="none" transform="matrix(1 0 0 1 113 548 )" mask="url(#clip35)" />
  </g>
</svg>