<?xml version="1.0" encoding="utf-8"?>
<svg version="1.1" xmlns:xlink="http://www.w3.org/1999/xlink" width="56px" height="56px" xmlns="http://www.w3.org/2000/svg">
  <g transform="matrix(1 0 0 1 -619 -131 )">
    <path d="M 647 132  C 662.12 132  674 143.88  674 159  C 674 174.12  662.12 186  647 186  C 631.88 186  620 174.12  620 159  C 620 143.88  631.88 132  647 132  Z " fill-rule="nonzero" fill="#ffffff" stroke="none" fill-opacity="0" />
    <path d="M 647 132  C 662.12 132  674 143.88  674 159  C 674 174.12  662.12 186  647 186  C 631.88 186  620 174.12  620 159  C 620 143.88  631.88 132  647 132  Z " stroke-width="2" stroke="#80ffff" fill="none" />
  </g>
</svg>