<?xml version="1.0" encoding="utf-8"?>
<svg version="1.1" xmlns:xlink="http://www.w3.org/1999/xlink" width="30px" height="35px" xmlns="http://www.w3.org/2000/svg">
  <g transform="matrix(1 0 0 1 -809 -139 )">
    <path d="M 6.767578125 25.517578125  C 7.255859375 25.029296875  7.5 24.4401041666667  7.5 23.75  C 7.5 23.0598958333333  7.255859375 22.470703125  6.767578125 21.982421875  C 6.279296875 21.494140625  5.69010416666667 21.25  5 21.25  C 4.30989583333333 21.25  3.720703125 21.494140625  3.232421875 21.982421875  C 2.744140625 22.470703125  2.5 23.0598958333333  2.5 23.75  C 2.5 24.4401041666667  2.744140625 25.029296875  3.232421875 25.517578125  C 3.720703125 26.005859375  4.30989583333333 26.25  5 26.25  C 5.69010416666667 26.25  6.279296875 26.005859375  6.767578125 25.517578125  Z M 26.767578125 25.517578125  C 27.255859375 25.029296875  27.5 24.4401041666667  27.5 23.75  C 27.5 23.0598958333333  27.255859375 22.470703125  26.767578125 21.982421875  C 26.279296875 21.494140625  25.6901041666667 21.25  25 21.25  C 24.3098958333333 21.25  23.720703125 21.494140625  23.232421875 21.982421875  C 22.744140625 22.470703125  22.5 23.0598958333333  22.5 23.75  C 22.5 24.4401041666667  22.744140625 25.029296875  23.232421875 25.517578125  C 23.720703125 26.005859375  24.3098958333333 26.25  25 26.25  C 25.6901041666667 26.25  26.279296875 26.005859375  26.767578125 25.517578125  Z M 26.328125 17.05078125  C 26.5755208333333 16.7513020833333  26.6666666666667 16.40625  26.6015625 16.015625  L 25.1953125 8.515625  C 25.1302083333333 8.21614583333333  24.9837239583333 7.97200520833333  24.755859375 7.783203125  C 24.5279947916667 7.59440104166667  24.2643229166667 7.5  23.96484375 8  L 6.03515625 8  C 5.73567708333333 7.5  5.47200520833333 7.59440104166667  5.244140625 7.783203125  C 5.01627604166667 7.97200520833333  4.86979166666667 8.21614583333333  4.8046875 8.515625  L 3.3984375 16.015625  C 3.33333333333333 16.40625  3.42447916666667 16.7513020833333  3.671875 17.05078125  C 3.91927083333333 17.3502604166667  4.23828125 17.5  4.62890625 17  L 25.37109375 17  C 25.76171875 17.5  26.0807291666667 17.3502604166667  26.328125 17.05078125  Z M 21.9140625 4.7265625  C 22.0963541666667 4.54427083333333  22.1875 4.32291666666667  22.1875 4.0625  C 22.1875 3.80208333333333  22.0963541666667 3.58072916666666  21.9140625 3.3984375  C 21.7317708333333 3.21614583333333  21.5104166666667 3.125  21.25 3.125  L 8.75 3.125  C 8.48958333333333 3.125  8.26822916666667 3.21614583333333  8.0859375 3.3984375  C 7.90364583333333 3.58072916666666  7.8125 3.80208333333333  7.8125 4.0625  C 7.8125 4.32291666666667  7.90364583333333 4.54427083333333  8.0859375 4.7265625  C 8.26822916666667 4.90885416666667  8.48958333333333 5  8.75 5  L 21.25 5  C 21.5104166666667 5  21.7317708333333 4.90885416666667  21.9140625 4.7265625  Z M 29.55078125 13.8671875  C 29.8502604166667 15.1953125  30 16.6471354166667  30 18.22265625  L 30 30  L 27.5 30  L 27.5 32.5  C 27.5 33.1901041666667  27.255859375 33.779296875  26.767578125 34.267578125  C 26.279296875 34.755859375  25.6901041666667 35  25 35  C 24.3098958333333 35  23.720703125 34.755859375  23.232421875 34.267578125  C 22.744140625 33.779296875  22.5 33.1901041666667  22.5 32.5  L 22.5 30  L 7.5 30  L 7.5 32.5  C 7.5 33.1901041666667  7.255859375 33.779296875  6.767578125 34.267578125  C 6.279296875 34.755859375  5.69010416666667 35  5 35  C 4.30989583333333 35  3.720703125 34.755859375  3.232421875 34.267578125  C 2.744140625 33.779296875  2.5 33.1901041666667  2.5 32.5  L 2.5 30  L 0 30  L 0 18.22265625  C 0 16.7643229166667  0.162760416666667 15.3125  0.48828125 13.8671875  L 2.5 5  C 2.6171875 3.984375  3.251953125 3.09244791666667  4.404296875 2.32421875  C 5.556640625 1.55598958333333  7.05403645833333 0.976562499999999  8.896484375 0.585937499999999  C 10.7389322916667 0.195312499999998  12.7734375 0  15 0  C 17.2265625 0  19.2610677083333 0.195312499999998  21.103515625 0.585937499999999  C 22.9459635416667 0.976562499999999  24.443359375 1.55598958333333  25.595703125 2.32421875  C 26.748046875 3.09244791666667  27.3828125 3.984375  27.5 5  L 29.55078125 13.8671875  Z " fill-rule="nonzero" fill="#81d3f8" stroke="none" transform="matrix(1 0 0 1 809 139 )" />
  </g>
</svg>