<?xml version="1.0" encoding="utf-8"?>
<svg version="1.1" xmlns:xlink="http://www.w3.org/1999/xlink" width="30px" height="35px" xmlns="http://www.w3.org/2000/svg">
  <g transform="matrix(1 0 0 1 -1194 -141 )">
    <path d="M 8.75 0  L 21.25 0  C 23.6588541666667 0  25.7194010416667 0.608723958333335  27.431640625 1.826171875  C 29.1438802083333 3.04361979166667  30 4.51822916666667  30 6.25  L 30 23.75  C 30 25.4427083333333  29.1829427083333 26.8880208333333  27.548828125 28.0859375  C 25.9147135416667 29.2838541666667  23.92578125 29.9153645833333  21.58203125 29.98046875  L 25.7421875 33.92578125  C 25.9505208333333 34.12109375  26.0026041666667 34.3489583333333  25.8984375 34.609375  C 25.7942708333333 34.8697916666667  25.5989583333333 35  25.3125 35  L 4.6875 35  C 4.40104166666667 35  4.20572916666667 34.8697916666667  4.1015625 34.609375  C 3.99739583333333 34.3489583333333  4.04947916666667 34.12109375  4.2578125 33.92578125  L 8.41796875 29.98046875  C 6.07421875 29.9153645833333  4.08528645833333 29.2838541666667  2.451171875 28.0859375  C 0.817057291666667 26.8880208333333  0 25.4427083333333  0 23.75  L 0 6.25  C 0 4.51822916666667  0.856119791666667 3.04361979166667  2.568359375 1.826171875  C 4.28059895833333 0.608723958333335  6.34114583333333 0  8.75 0  Z M 12.34375 25.15625  C 13.0729166666667 25.8854166666667  13.9583333333333 26.25  15 26.25  C 16.0416666666667 26.25  16.9270833333333 25.8854166666667  17.65625 25.15625  C 18.3854166666667 24.4270833333333  18.75 23.5416666666667  18.75 22.5  C 18.75 21.4583333333333  18.3854166666667 20.5729166666667  17.65625 19.84375  C 16.9270833333333 19.1145833333333  16.0416666666667 18.75  15 18.75  C 13.9583333333333 18.75  13.0729166666667 19.1145833333333  12.34375 19.84375  C 11.6145833333333 20.5729166666667  11.25 21.4583333333333  11.25 22.5  C 11.25 23.5416666666667  11.6145833333333 24.4270833333333  12.34375 25.15625  Z M 4 15  L 26.25 15  L 26.25 5  L 4 5  L 4 15  Z " fill-rule="nonzero" fill="#81d3f8" stroke="none" transform="matrix(1 0 0 1 1194 141 )" />
  </g>
</svg>