<?xml version="1.0" encoding="utf-8"?>
<svg version="1.1" xmlns:xlink="http://www.w3.org/1999/xlink" width="35px" height="29px" xmlns="http://www.w3.org/2000/svg">
  <g transform="matrix(1 0 0 1 -1007 -145 )">
    <path d="M 15.3545673076923 16.6008522727273  C 15.8874198717949 17.1226325757576  16.1538461538462 17.7405303030303  16.1538461538462 18.4545454545455  L 16.1538461538462 26.3636363636364  C 16.1538461538462 27.0776515151515  15.8874198717949 27.6955492424242  15.3545673076923 28.2173295454545  C 14.8217147435897 28.7391098484848  14.1907051282051 29  13.4615384615385 29  L 2.69230769230769 29  C 1.96314102564103 29  1.33213141025641 28.7391098484848  0.799278846153846 28.2173295454545  C 0.266426282051282 27.6955492424242  0 27.0776515151515  0 26.3636363636364  L 0 18.4545454545455  C 0 17.7405303030303  0.266426282051282 17.1226325757576  0.799278846153846 16.6008522727273  C 1.33213141025641 16.079071969697  1.96314102564103 15.8181818181818  2.69230769230769 15.8181818181818  L 13.4615384615385 15.8181818181818  C 14.1907051282051 15.8181818181818  14.8217147435897 16.079071969697  15.3545673076923 16.6008522727273  Z M 15.3545673076923 0.782670454545454  C 15.8874198717949 1.30445075757576  16.1538461538462 1.92234848484848  16.1538461538462 2.63636363636364  L 16.1538461538462 10.5454545454545  C 16.1538461538462 11.2594696969697  15.8874198717949 11.8773674242424  15.3545673076923 12.3991477272727  C 14.8217147435897 12.920928030303  14.1907051282051 13.1818181818182  13.4615384615385 13.1818181818182  L 2.69230769230769 13.1818181818182  C 1.96314102564103 13.1818181818182  1.33213141025641 12.920928030303  0.799278846153846 12.3991477272727  C 0.266426282051282 11.8773674242424  0 11.2594696969697  0 10.5454545454545  L 0 2.63636363636364  C 0 1.92234848484848  0.266426282051282 1.30445075757576  0.799278846153846 0.782670454545454  C 1.33213141025641 0.260890151515149  1.96314102564103 0  2.69230769230769 0  L 13.4615384615385 0  C 14.1907051282051 0  14.8217147435897 0.260890151515149  15.3545673076923 0.782670454545454  Z M 34.2007211538462 16.6008522727273  C 34.7335737179487 17.1226325757576  35 17.7405303030303  35 18.4545454545455  L 35 26.3636363636364  C 35 27.0776515151515  34.7335737179487 27.6955492424242  34.2007211538462 28.2173295454545  C 33.6678685897436 28.7391098484848  33.036858974359 29  32.3076923076923 29  L 21.5384615384615 29  C 20.8092948717949 29  20.1782852564103 28.7391098484848  19.6454326923077 28.2173295454545  C 19.1125801282051 27.6955492424242  18.8461538461538 27.0776515151515  18.8461538461538 26.3636363636364  L 18.8461538461538 18.4545454545455  C 18.8461538461538 17.7405303030303  19.1125801282051 17.1226325757576  19.6454326923077 16.6008522727273  C 20.1782852564103 16.079071969697  20.8092948717949 15.8181818181818  21.5384615384615 15.8181818181818  L 32.3076923076923 15.8181818181818  C 33.036858974359 15.8181818181818  33.6678685897436 16.079071969697  34.2007211538462 16.6008522727273  Z M 34.2007211538462 0.782670454545454  C 34.7335737179487 1.30445075757576  35 1.92234848484848  35 2.63636363636364  L 35 10.5454545454545  C 35 11.2594696969697  34.7335737179487 11.8773674242424  34.2007211538462 12.3991477272727  C 33.6678685897436 12.920928030303  33.036858974359 13.1818181818182  32.3076923076923 13.1818181818182  L 21.5384615384615 13.1818181818182  C 20.8092948717949 13.1818181818182  20.1782852564103 12.920928030303  19.6454326923077 12.3991477272727  C 19.1125801282051 11.8773674242424  18.8461538461538 11.2594696969697  18.8461538461538 10.5454545454545  L 18.8461538461538 2.63636363636364  C 18.8461538461538 1.92234848484848  19.1125801282051 1.30445075757576  19.6454326923077 0.782670454545454  C 20.1782852564103 0.260890151515149  20.8092948717949 0  21.5384615384615 0  L 32.3076923076923 0  C 33.036858974359 0  33.6678685897436 0.260890151515149  34.2007211538462 0.782670454545454  Z " fill-rule="nonzero" fill="#81d3f8" stroke="none" transform="matrix(1 0 0 1 1007 145 )" />
  </g>
</svg>