<?xml version="1.0" encoding="utf-8"?>
<svg version="1.1" xmlns:xlink="http://www.w3.org/1999/xlink" width="22px" height="34px" xmlns="http://www.w3.org/2000/svg">
  <g transform="matrix(1 0 0 1 -625 -601 )">
    <path d="M 14.888671875 15.33984375  C 15.962890625 14.2330729166667  16.5 12.8975694444444  16.5 11.3333333333333  C 16.5 9.76909722222222  15.962890625 8.43359375  14.888671875 7.32682291666667  C 13.814453125 6.22005208333333  12.5182291666667 5.66666666666667  11 5.66666666666667  C 9.48177083333333 5.66666666666667  8.185546875 6.22005208333333  7.111328125 7.32682291666667  C 6.037109375 8.43359375  5.5 9.76909722222222  5.5 11.3333333333333  C 5.5 12.8975694444444  6.037109375 14.2330729166667  7.111328125 15.33984375  C 8.185546875 16.4466145833333  9.48177083333333 17  11 17  C 12.5182291666667 17  13.814453125 16.4466145833333  14.888671875 15.33984375  Z M 18.77734375 3.3203125  C 20.92578125 5.53385416666667  22 8.20486111111111  22 11.3333333333333  C 22 12.9418402777778  21.763671875 14.2625868055556  21.291015625 15.2955729166667  L 13.470703125 32.4283854166667  C 13.2415364583333 32.9153645833333  12.9013671875 33.2990451388889  12.4501953125 33.5794270833333  C 11.9990234375 33.8598090277778  11.515625 34  11 34  C 10.484375 34  10.0009765625 33.8598090277778  9.5498046875 33.5794270833333  C 9.0986328125 33.2990451388889  8.765625 32.9153645833333  8.55078125 32.4283854166667  L 0.708984375 15.2955729166667  C 0.236328125 14.2625868055556  0 12.9418402777778  0 11.3333333333333  C 0 8.20486111111111  1.07421875 5.53385416666667  3.22265625 3.3203125  C 5.37109375 1.10677083333333  7.96354166666667 0  11 0  C 14.0364583333333 0  16.62890625 1.10677083333333  18.77734375 3.3203125  Z " fill-rule="nonzero" fill="#8080ff" stroke="none" transform="matrix(1 0 0 1 625 601 )" />
  </g>
</svg>