<?xml version="1.0" encoding="utf-8"?>
<svg version="1.1" xmlns:xlink="http://www.w3.org/1999/xlink" width="160px" height="42px" xmlns="http://www.w3.org/2000/svg">
  <defs>
    <mask fill="white" id="clip28">
      <path d="M 9.19999999999999 0.600000000000001  L 0 8.59999999999999  L 0 34.2  L 9.19999999999999 41.8  L 150.4 41.8  L 159.2 34.2  L 159.2 8.59999999999999  L 150.4 0.600000000000001  L 9.19999999999999 0.600000000000001  Z " fill-rule="evenodd" />
    </mask>
  </defs>
  <g transform="matrix(1 0 0 1 -175 -57 )">
    <path d="M 9.19999999999999 0.600000000000001  L 0 8.59999999999999  L 0 34.2  L 9.19999999999999 41.8  L 150.4 41.8  L 159.2 34.2  L 159.2 8.59999999999999  L 150.4 0.600000000000001  L 9.19999999999999 0.600000000000001  Z " fill-rule="nonzero" fill="#064678" stroke="none" transform="matrix(1 0 0 1 175 57 )" />
    <path d="M 9.19999999999999 0.600000000000001  L 0 8.59999999999999  L 0 34.2  L 9.19999999999999 41.8  L 150.4 41.8  L 159.2 34.2  L 159.2 8.59999999999999  L 150.4 0.600000000000001  L 9.19999999999999 0.600000000000001  Z " stroke-width="2" stroke="#0099ff" fill="none" transform="matrix(1 0 0 1 175 57 )" mask="url(#clip28)" />
  </g>
</svg>