<?xml version="1.0" encoding="utf-8"?>
<svg version="1.1" xmlns:xlink="http://www.w3.org/1999/xlink" width="120px" height="56px" xmlns="http://www.w3.org/2000/svg">
  <defs>
    <mask fill="white" id="clip36">
      <path d="M 12.8 8  L 0.33333333333326 8  L 0.33333333333326 55.6781609195401  L 119.666666666667 55.6781609195401  L 119.666666666667 37.0114942528737  L 119.666666666667 32.8275862068965  L 119.666666666667 26.0689655172414  L 119.666666666667 8  L 26.4 8  L 19.6 0.772413793103404  L 12.8 8  Z " fill-rule="evenodd" />
    </mask>
  </defs>
  <g transform="matrix(1 0 0 1 -98 -604 )">
    <path d="M 12.8 8  L 0.33333333333326 8  L 0.33333333333326 55.6781609195401  L 119.666666666667 55.6781609195401  L 119.666666666667 37.0114942528737  L 119.666666666667 32.8275862068965  L 119.666666666667 26.0689655172414  L 119.666666666667 8  L 26.4 8  L 19.6 0.772413793103404  L 12.8 8  Z " fill-rule="nonzero" fill="#4b72cd" stroke="none" transform="matrix(1 0 0 1 98 604 )" />
    <path d="M 12.8 8  L 0.33333333333326 8  L 0.33333333333326 55.6781609195401  L 119.666666666667 55.6781609195401  L 119.666666666667 37.0114942528737  L 119.666666666667 32.8275862068965  L 119.666666666667 26.0689655172414  L 119.666666666667 8  L 26.4 8  L 19.6 0.772413793103404  L 12.8 8  Z " stroke-width="2" stroke="#3399ff" fill="none" transform="matrix(1 0 0 1 98 604 )" mask="url(#clip36)" />
  </g>
</svg>