<?xml version="1.0" encoding="utf-8"?>
<svg version="1.1" xmlns:xlink="http://www.w3.org/1999/xlink" width="125px" height="48px" xmlns="http://www.w3.org/2000/svg">
  <defs>
    <mask fill="white" id="clip38">
      <path d="M 119 0.320000000000146  L 0.333333333333282 0.320000000000146  L 0.333333333333282 47.6799999999999  L 119 47.6799999999999  L 119 29.1200000000001  L 124.333333333333 25.2800000000001  L 119 18.24  L 119 0.320000000000146  Z " fill-rule="evenodd" />
    </mask>
  </defs>
  <g transform="matrix(1 0 0 1 -310 -489 )">
    <path d="M 119 0.320000000000146  L 0.333333333333282 0.320000000000146  L 0.333333333333282 47.6799999999999  L 119 47.6799999999999  L 119 29.1200000000001  L 124.333333333333 25.2800000000001  L 119 18.24  L 119 0.320000000000146  Z " fill-rule="nonzero" fill="#4b72cd" stroke="none" transform="matrix(1 0 0 1 310 489 )" />
    <path d="M 119 0.320000000000146  L 0.333333333333282 0.320000000000146  L 0.333333333333282 47.6799999999999  L 119 47.6799999999999  L 119 29.1200000000001  L 124.333333333333 25.2800000000001  L 119 18.24  L 119 0.320000000000146  Z " stroke-width="2" stroke="#3399ff" fill="none" transform="matrix(1 0 0 1 310 489 )" mask="url(#clip38)" />
  </g>
</svg>