<?xml version="1.0" encoding="utf-8"?>
<svg version="1.1" xmlns:xlink="http://www.w3.org/1999/xlink" width="104px" height="56px" xmlns="http://www.w3.org/2000/svg">
  <defs>
    <mask fill="white" id="clip37">
      <path d="M 11.0933333333332 8  L 0.288888888888755 8  L 0.288888888888755 55.6781609195401  L 103.711111111111 55.6781609195401  L 103.711111111111 37.0114942528737  L 103.711111111111 32.8275862068965  L 103.711111111111 26.0689655172414  L 103.711111111111 8  L 22.8800000000001 8  L 16.9866666666667 0.772413793103404  L 11.0933333333332 8  Z " fill-rule="evenodd" />
    </mask>
  </defs>
  <g transform="matrix(1 0 0 1 -364 -566 )">
    <path d="M 11.0933333333332 8  L 0.288888888888755 8  L 0.288888888888755 55.6781609195401  L 103.711111111111 55.6781609195401  L 103.711111111111 37.0114942528737  L 103.711111111111 32.8275862068965  L 103.711111111111 26.0689655172414  L 103.711111111111 8  L 22.8800000000001 8  L 16.9866666666667 0.772413793103404  L 11.0933333333332 8  Z " fill-rule="nonzero" fill="#4b72cd" stroke="none" transform="matrix(1 0 0 1 364 566 )" />
    <path d="M 11.0933333333332 8  L 0.288888888888755 8  L 0.288888888888755 55.6781609195401  L 103.711111111111 55.6781609195401  L 103.711111111111 37.0114942528737  L 103.711111111111 32.8275862068965  L 103.711111111111 26.0689655172414  L 103.711111111111 8  L 22.8800000000001 8  L 16.9866666666667 0.772413793103404  L 11.0933333333332 8  Z " stroke-width="2" stroke="#3399ff" fill="none" transform="matrix(1 0 0 1 364 566 )" mask="url(#clip37)" />
  </g>
</svg>