<?xml version="1.0" encoding="utf-8"?>
<svg version="1.1" xmlns:xlink="http://www.w3.org/1999/xlink" width="11px" height="50px" xmlns="http://www.w3.org/2000/svg">
  <g transform="matrix(1 0 0 1 -977 -710 )">
    <path d="M 10.5285714285714 37.037037037037  C 10.7285714285714 37.037037037037  10.8666666666667 37.2202932098765  10.9428571428571 37.5868055555556  C 11.0190476190476 37.9533179012346  10.9952380952381 38.2908950617284  10.8714285714286 38.599537037037  L 5.87142857142857 49.7106481481481  C 5.77619047619048 49.9035493827161  5.66666666666667 50  5.54285714285714 50  C 5.40952380952381 50  5.2952380952381 49.9035493827161  5.2 49.7106481481481  L 0.128571428571429 38.599537037037  C 0.00476190476190475 38.2908950617284  -0.0190476190476191 37.9533179012346  0.0571428571428571 37.5868055555556  C 0.142857142857143 37.2202932098765  0.280952380952381 37.037037037037  0.471428571428571 37.037037037037  L 3.67142857142857 37.037037037037  L 3.67142857142857 0.925925925925924  C 3.67142857142857 0.655864197530859  3.71428571428571 0.434027777777779  3.8 0.260416666666669  C 3.88571428571429 0.086805555555558  3.9952380952381 0  4.12857142857143 0  L 6.87142857142857 0  C 7.0047619047619 0  7.11428571428571 0.086805555555558  7.2 0.260416666666669  C 7.28571428571429 0.434027777777779  7.32857142857143 0.655864197530859  7.32857142857143 0.925925925925924  L 7.32857142857143 37.037037037037  L 10.5285714285714 37.037037037037  Z " fill-rule="nonzero" fill="#02a7f0" stroke="none" transform="matrix(1 0 0 1 977 710 )" />
  </g>
</svg>